<svg version="1.1" xmlns="http://www.w3.org/2000/svg" xmlns:xlink="http://www.w3.org/1999/xlink" width="128.11638" height="128.06452" viewBox="0,0,128.11638,128.06452"><g transform="translate(-176,-115.93548)"><g data-paper-data="{&quot;isPaintingLayer&quot;:true}" fill-rule="nonzero" stroke-width="0" stroke-linecap="butt" stroke-linejoin="miter" stroke-miterlimit="10" stroke-dasharray="" stroke-dashoffset="0" style="mix-blend-mode: normal"><path d="M176.11637,243.93548v-128h128v128z" fill="#d08800" stroke="#000000"/><g fill="#624000" stroke="none"><path d="M176.46028,127.58495v-11.64947h11.6051v11.64947z"/><path d="M187.72148,139.23441v-11.64946h11.6051v11.64946z"/><path d="M199.32658,150.88387v-11.64946h11.6051v11.64946z"/><path d="M210.93168,162.53334v-11.64946h11.6051v11.64946z"/><path d="M199.67048,127.58495v-11.64947h11.6051v11.64947z"/><path d="M210.93168,139.23441v-11.64946h11.6051v11.64946z"/><path d="M222.88068,127.58495v-11.64947h11.6051v11.64947z"/><path d="M222.53678,150.88387v-11.64946h11.6051v11.64946z"/><path d="M234.14188,162.53334v-11.64946h11.6051v11.64946z"/><path d="M234.14188,139.23441v-11.64946h11.6051v11.64946z"/><path d="M246.09088,127.58495v-11.64947h11.6051v11.64947z"/><path d="M245.74698,150.88387v-11.64946h11.6051v11.64946z"/><path d="M257.35209,162.53334v-11.64946h11.6051v11.64946z"/><path d="M257.69597,139.23441v-11.64946h11.6051v11.64946z"/><path d="M187.72148,162.53334v-11.64946h11.6051v11.64946z"/><path d="M176.11638,150.88387v-11.64946h11.6051v11.64946z"/><path d="M269.30108,127.58495v-11.64947h11.6051v11.64947z"/><path d="M268.95718,150.88387v-11.64946h11.6051v11.64946z"/><path d="M280.56228,162.53334v-11.64946h11.6051v11.64946z"/><path d="M280.90618,139.23441v-11.64946h11.6051v11.64946z"/><path d="M292.51128,127.58495v-11.64947h11.6051v11.64947z"/><path d="M292.16738,150.88387v-11.64946h11.6051v11.64946z"/><path d="M176.46028,174.18857v-11.64947h11.6051v11.64947z"/><path d="M187.72148,185.83803v-11.64946h11.6051v11.64946z"/><path d="M199.32658,197.4875v-11.64946h11.6051v11.64946z"/><path d="M210.93168,209.13696v-11.64946h11.6051v11.64946z"/><path d="M199.67048,174.18857v-11.64947h11.6051v11.64947z"/><path d="M210.93168,185.83803v-11.64946h11.6051v11.64946z"/><path d="M222.88068,174.18857v-11.64947h11.6051v11.64947z"/><path d="M222.53678,197.4875v-11.64946h11.6051v11.64946z"/><path d="M234.14188,209.13696v-11.64946h11.6051v11.64946z"/><path d="M234.14188,185.83803v-11.64946h11.6051v11.64946z"/><path d="M246.09088,174.18857v-11.64947h11.6051v11.64947z"/><path d="M257.35209,209.13696v-11.64946h11.6051v11.64946z"/><path d="M257.69597,185.83803v-11.64946h11.6051v11.64946z"/><path d="M187.72148,209.13696v-11.64946h11.6051v11.64946z"/><path d="M176.11638,197.4875v-11.64946h11.6051v11.64946z"/><path d="M269.30108,174.18857v-11.64947h11.6051v11.64947z"/><path d="M268.95718,197.4875v-11.64946h11.6051v11.64946z"/><path d="M280.56228,209.13696v-11.64946h11.6051v11.64946z"/><path d="M280.90618,185.83803v-11.64946h11.6051v11.64946z"/><path d="M292.51128,174.18857v-11.64947h11.6051v11.64947z"/><path d="M292.16738,197.4875v-11.64946h11.6051v11.64946z"/><path d="M176.46028,220.79219v-11.64946h11.6051v11.64946z"/><path d="M187.72148,232.44165v-11.64947h11.6051v11.64947z"/><path d="M199.67048,220.79219v-11.64946h11.6051v11.64946z"/><path d="M210.93168,232.44165v-11.64947h11.6051v11.64947z"/><path d="M222.88068,220.79219v-11.64946h11.6051v11.64946z"/><path d="M234.14188,232.44165v-11.64947h11.6051v11.64947z"/><path d="M246.09088,220.79219v-11.64946h11.6051v11.64946z"/><path d="M257.69597,232.44165v-11.64947h11.6051v11.64947z"/><path d="M269.30108,220.79219v-11.64946h11.6051v11.64946z"/><path d="M280.90618,232.44165v-11.64947h11.6051v11.64947z"/><path d="M292.51128,220.79219v-11.64946h11.6051v11.64946z"/><path d="M176.46028,243.93548v-11.64947h11.6051v11.64947z"/><path d="M199.67048,243.93548v-11.64947h11.6051v11.64947z"/><path d="M222.88068,243.93548v-11.64947h11.6051v11.64947z"/><path d="M245.74698,197.4875v-11.64946h11.6051v11.64946z"/><path d="M246.09088,243.93548v-11.64947h11.6051v11.64947z"/><path d="M269.30108,243.93548v-11.64947h11.6051v11.64947z"/><path d="M292.51128,243.93548v-11.64947h11.6051v11.64947z"/></g><path d="M176.11636,136.25669v-15.32121h128v15.32121l-8.7079,-4.97267l-5.4684,8.91002l-3.10032,-9.46134l-9.98512,10.18361l-9.81197,-8.15598l-14.13338,17.94743l2.10952,-16.31993l-6.34044,6.02938l-6.94629,-8.23355l-5.32609,7.26264l-4.87321,-3.028l-8.81808,8.56069l-5.31296,-11.54045l-7.17803,24.44916l2.83339,-25.08455l-7.6562,24.86568l-1.59907,-21.12598l-4.79835,9.9956l1.36575,-10.88538l-2.34109,7.02343l-0.69174,-7.02415l-3.76426,16.53627l-4.19789,-16.31255l-6.08209,14.73214z" fill="#00d40b" stroke="none"/><path d="M176.11637,131.25669v-15.32121h128v15.32121l-8.7079,-4.97267l-5.4684,8.91002l-3.10032,-9.46134l-9.98512,10.18361l-9.81197,-8.15598l-14.13338,17.94743l2.10952,-16.31993l-6.34044,6.02938l-6.94629,-8.23355l-5.32609,7.26264l-4.87321,-3.028l-8.81808,8.56069l-5.31296,-11.54045l-7.17803,24.44916l2.83339,-25.08455l-7.6562,24.86568l-1.59907,-21.12598l-4.79835,9.9956l1.36575,-10.88538l-2.34109,7.02343l-0.69174,-7.02415l-3.76426,16.53627l-4.19789,-16.31255l-6.08209,14.73214z" fill="#00ff0d" stroke="none"/><path d="M176,244v-128h128v128z" fill="none" stroke="#000000"/></g></g></svg>