<svg version="1.1" xmlns="http://www.w3.org/2000/svg" xmlns:xlink="http://www.w3.org/1999/xlink" width="128" height="128" viewBox="0,0,128,128"><g transform="translate(-176,-116)"><g data-paper-data="{&quot;isPaintingLayer&quot;:true}" fill-rule="nonzero" stroke-width="0" stroke-linecap="butt" stroke-linejoin="miter" stroke-miterlimit="10" stroke-dasharray="" stroke-dashoffset="0" style="mix-blend-mode: normal"><path d="M176.00001,125.96692c1.09549,10.24703 4.07871,20.84145 7.5726,27.85471c3.96469,7.95829 6.76269,17.57643 11.58336,24.99602c0.11532,0.17749 0.23465,0.35418 0.35755,0.53017c1.08937,2.60121 2.60584,4.97916 4.46173,7.04617c1.09887,2.14981 2.49982,4.11956 4.14688,5.85327c0.73842,1.10385 1.5624,2.14561 2.46246,3.11581c0.18211,0.27188 0.37196,0.53519 0.57139,0.78792c3.03445,3.84542 9.27651,10.92349 14.4605,14.77198c1.77918,2.15825 3.91337,4.01294 6.31319,5.4747c2.71087,2.47339 5.55321,5.23715 8.67797,7.26332c5.60287,3.63303 11.61533,6.23323 17.70444,8.68936c4.39942,2.65367 9.45337,4.72962 14.37051,6.35411c2.71308,1.36697 5.70926,2.25425 8.87716,2.55044c0.37417,0.09353 0.74384,0.18441 1.10854,0.27272c0.97087,0.30861 1.96745,0.55953 2.98572,0.74873c2.55608,0.67842 5.66531,1.5204 8.29129,1.63471c0.00142,0.02966 0.00289,0.05931 0.00441,0.08894h-113.9497z" data-paper-data="{&quot;index&quot;:null}" fill="#d08800" stroke="#000000"/><g data-paper-data="{&quot;index&quot;:null}" fill="#624000" stroke="none"><path d=""/><path d=""/><path d=""/><path d=""/><path d=""/><path d=""/><path d=""/><path d=""/><path d=""/><path d=""/><path d=""/><path d=""/><path d=""/><path d=""/><path d=""/><path d=""/><path d=""/><path d=""/><path d=""/><path d=""/><path d="M176,125.96683c0.05987,0.56005 0.12538,1.12115 0.19631,1.68264h-0.19631z"/><path d="M178.40961,139.29893c1.07729,4.24796 2.39606,8.23784 3.84409,11.64946h-5.9098v-11.64946z"/><path d=""/><path d=""/><path d=""/><path d=""/><path d=""/><path d=""/><path d=""/><path d=""/><path d=""/><path d=""/><path d=""/><path d="M211.1592,200.89928c2.48599,2.79074 5.4639,5.8742 8.30786,8.3022h-8.30786z"/><path d=""/><path d=""/><path d=""/><path d=""/><path d="M199.5541,185.91276c0.13836,0.16221 0.27875,0.32263 0.42114,0.48122c1.09887,2.14981 2.49982,4.11956 4.14688,5.85327c0.73842,1.10385 1.5624,2.14561 2.46246,3.11581c0.18211,0.27188 0.37196,0.53519 0.57139,0.78792c0.33905,0.42966 0.71814,0.89968 1.13133,1.40104h-8.7332z"/><path d="M187.949,209.20148v-11.64946h11.6051v11.64946z"/><path d="M187.60509,185.90256v-11.64946h4.93689c0.81014,1.58609 1.67357,3.11715 2.61398,4.56455c0.11532,0.17749 0.23465,0.35418 0.35755,0.53017c0.93566,2.23419 2.18642,4.30369 3.69669,6.15292v0.40181z"/><path d="M176,174.25309v-11.64947h11.43583c0.05644,0.13789 0.11285,0.27586 0.16927,0.41389v11.23558z"/><path d="M176.3439,197.55202v-11.64946h11.6051v11.64946z"/><path d=""/><path d=""/><path d=""/><path d=""/><path d=""/><path d="M234.3694,232.50617v-10.44448c0.73073,0.56703 1.47607,1.10511 2.23822,1.5993c3.02064,1.95865 6.16032,3.6171 9.36688,5.11463v3.73055z"/><path d="M222.42041,211.85103c1.6058,1.76479 3.46075,3.29887 5.50925,4.54663c1.59538,1.45563 3.23629,3.01182 4.95351,4.45905h-10.46277z"/><path d="M210.81531,232.50617v-11.64947h11.6051v11.64947z"/><path d="M199.2102,220.85671v-11.64946h11.6051v11.64946z"/><path d="M187.6051,232.50617v-11.64947h11.6051v11.64947z"/><path d="M176,220.85671v-11.64946h11.6051v11.64946z"/><path d=""/><path d="M268.8408,244v-5.21653c2.67118,1.32217 5.61251,2.18099 8.71895,2.47143c0.37417,0.09353 0.74384,0.18441 1.10854,0.27272c0.58354,0.18549 1.17637,0.35014 1.77761,0.49307v1.97931z"/><path d="M245.6306,244v-11.64947h8.68176c0.94677,0.57107 1.92384,1.11538 2.92334,1.63419v10.01528z"/><path d=""/><path d="M222.4204,244v-11.64947h11.6051v11.64947z"/><path d="M199.2102,244v-11.64947h11.6051v11.64947z"/><path d="M176,244v-11.64947h11.6051v11.64947z"/></g><path d="M176.50003,125.56915c0.33871,3.16818 0.85787,6.36956 1.51678,9.48804l-1.51678,0.86616z" data-paper-data="{&quot;index&quot;:null}" fill="#00d40b" stroke="none"/><path d="M176.50002,125.56906c0.17675,1.65333 0.40265,3.31569 0.6719,4.9706l-0.6719,0.38369z" data-paper-data="{&quot;index&quot;:null}" fill="#00ff0d" stroke="none"/><path d="M176,244v-128h128v128z" fill="none" stroke="#000000"/></g></g></svg>