<svg version="1.1" xmlns="http://www.w3.org/2000/svg" xmlns:xlink="http://www.w3.org/1999/xlink" width="128.11637" height="128" viewBox="0,0,128.11637,128"><g transform="translate(-176,-116)"><g data-paper-data="{&quot;isPaintingLayer&quot;:true}" fill-rule="nonzero" stroke-width="0" stroke-linecap="butt" stroke-linejoin="miter" stroke-miterlimit="10" stroke-dasharray="" stroke-dashoffset="0" style="mix-blend-mode: normal"><path d="M304.11635,243.93566h-113.9497c0.00152,-0.02963 0.00299,-0.05928 0.00441,-0.08894c2.62598,-0.11431 5.73521,-0.95629 8.29129,-1.63471c1.01827,-0.1892 2.01485,-0.44012 2.98572,-0.74873c0.3647,-0.08831 0.73437,-0.17919 1.10854,-0.27272c3.1679,-0.29619 6.16408,-1.18347 8.87716,-2.55044c4.91714,-1.62449 9.97109,-3.70044 14.37051,-6.35411c6.08911,-2.45613 12.10157,-5.05633 17.70444,-8.68936c3.12476,-2.02617 5.9671,-4.78993 8.67797,-7.26332c2.39982,-1.46176 4.53401,-3.31645 6.31319,-5.4747c5.18399,-3.84849 11.42605,-10.92656 14.4605,-14.77198c0.19943,-0.25273 0.38928,-0.51604 0.57139,-0.78792c0.90006,-0.9702 1.72404,-2.01196 2.46246,-3.11581c1.64706,-1.73371 3.04801,-3.70346 4.14688,-5.85327c1.85589,-2.06701 3.37236,-4.44496 4.46173,-7.04617c0.1229,-0.17599 0.24223,-0.35268 0.35755,-0.53017c4.82067,-7.41959 7.61867,-17.03773 11.58336,-24.99602c3.49389,-7.01326 6.47711,-17.60768 7.5726,-27.85471z" fill="#d08800" stroke="#000000"/><g fill="#624000" stroke="none"><path d=""/><path d=""/><path d=""/><path d=""/><path d=""/><path d=""/><path d=""/><path d=""/><path d=""/><path d=""/><path d=""/><path d=""/><path d=""/><path d=""/><path d=""/><path d=""/><path d=""/><path d=""/><path d=""/><path d=""/><path d="M304.11636,127.58513h-0.19631c0.07093,-0.56149 0.13644,-1.12259 0.19631,-1.68264z"/><path d="M303.77246,139.23459v11.64946h-5.9098c1.44803,-3.41162 2.7668,-7.4015 3.84409,-11.64946z"/><path d=""/><path d=""/><path d=""/><path d=""/><path d=""/><path d=""/><path d=""/><path d=""/><path d=""/><path d=""/><path d=""/><path d="M268.95716,209.13714h-8.30786c2.84396,-2.428 5.82187,-5.51146 8.30786,-8.3022z"/><path d=""/><path d=""/><path d=""/><path d=""/><path d="M280.56226,197.48768h-8.7332c0.41319,-0.50136 0.79228,-0.97138 1.13133,-1.40104c0.19943,-0.25273 0.38928,-0.51604 0.57139,-0.78792c0.90006,-0.9702 1.72404,-2.01196 2.46246,-3.11581c1.64706,-1.73371 3.04801,-3.70346 4.14688,-5.85327c0.14239,-0.15859 0.28278,-0.31901 0.42114,-0.48122z"/><path d="M280.56226,209.13714v-11.64946h11.6051v11.64946z"/><path d="M280.90616,185.83821v-0.40181c1.51027,-1.84923 2.76103,-3.91873 3.69669,-6.15292c0.1229,-0.17599 0.24223,-0.35268 0.35755,-0.53017c0.94041,-1.4474 1.80384,-2.97846 2.61398,-4.56455h4.93689v11.64946z"/><path d="M292.51126,174.18875v-11.23558c0.05642,-0.13803 0.11283,-0.276 0.16927,-0.41389h11.43583v11.64947z"/><path d="M292.16736,197.48768v-11.64946h11.6051v11.64946z"/><path d=""/><path d=""/><path d=""/><path d=""/><path d=""/><path d="M234.14186,232.44183v-3.73055c3.20656,-1.49753 6.34624,-3.15598 9.36688,-5.11463c0.76215,-0.49419 1.50749,-1.03227 2.23822,-1.5993v10.44448z"/><path d="M257.69596,220.79237h-10.46277c1.71722,-1.44723 3.35813,-3.00342 4.95351,-4.45905c2.0485,-1.24776 3.90345,-2.78184 5.50925,-4.54663z"/><path d="M257.69595,232.44183v-11.64947h11.6051v11.64947z"/><path d="M269.30106,220.79237v-11.64946h11.6051v11.64946z"/><path d="M280.90616,232.44183v-11.64947h11.6051v11.64947z"/><path d="M292.51126,220.79237v-11.64946h11.6051v11.64946z"/><path d=""/><path d="M199.67046,243.93566v-1.97931c0.60124,-0.14293 1.19407,-0.30758 1.77761,-0.49307c0.3647,-0.08831 0.73437,-0.17919 1.10854,-0.27272c3.10644,-0.29044 6.04777,-1.14926 8.71895,-2.47143v5.21653z"/><path d="M222.88066,243.93566v-10.01528c0.9995,-0.51881 1.97657,-1.06312 2.92334,-1.63419h8.68176v11.64947z"/><path d=""/><path d="M246.09086,243.93566v-11.64947h11.6051v11.64947z"/><path d="M269.30106,243.93566v-11.64947h11.6051v11.64947z"/><path d="M292.51126,243.93566v-11.64947h11.6051v11.64947z"/></g><path d="M304.11636,136.25669l-1.51678,-0.86616c0.65891,-3.11848 1.17807,-6.31986 1.51678,-9.48804z" fill="#00d40b" stroke="none"/><path d="M304.11637,131.25669l-0.6719,-0.38369c0.26925,-1.65491 0.49515,-3.31727 0.6719,-4.9706z" fill="#00ff0d" stroke="none"/><path d="M176,244v-128h128v128z" fill="none" stroke="#000000"/></g></g></svg>