<svg version="1.1" xmlns="http://www.w3.org/2000/svg" xmlns:xlink="http://www.w3.org/1999/xlink" width="128" height="128" viewBox="0,0,128,128"><g transform="translate(-176,-116)"><g data-paper-data="{&quot;isPaintingLayer&quot;:true}" fill-rule="nonzero" stroke-width="0" stroke-linecap="butt" stroke-linejoin="miter" stroke-miterlimit="10" stroke-dasharray="" stroke-dashoffset="0" style="mix-blend-mode: normal"><path d="M176,116h113.9497c-0.00152,0.02963 -0.00299,0.05928 -0.00441,0.08894c-2.62598,0.11431 -5.73521,0.95629 -8.29129,1.63471c-1.01827,0.1892 -2.01485,0.44012 -2.98572,0.74873c-0.3647,0.08831 -0.73437,0.17919 -1.10854,0.27272c-3.1679,0.29619 -6.16408,1.18347 -8.87716,2.55044c-4.91714,1.62449 -9.97109,3.70044 -14.37051,6.35411c-6.08911,2.45613 -12.10157,5.05633 -17.70444,8.68936c-3.12476,2.02617 -5.9671,4.78993 -8.67797,7.26332c-2.39982,1.46176 -4.53401,3.31645 -6.31319,5.4747c-5.18399,3.84849 -11.42605,10.92656 -14.4605,14.77198c-0.19943,0.25273 -0.38928,0.51604 -0.57139,0.78792c-0.90006,0.9702 -1.72404,2.01196 -2.46246,3.11581c-1.64706,1.73371 -3.04801,3.70346 -4.14688,5.85327c-1.85589,2.06701 -3.37236,4.44496 -4.46173,7.04617c-0.1229,0.17599 -0.24223,0.35268 -0.35755,0.53017c-4.82067,7.41959 -7.61867,17.03773 -11.58336,24.99602c-3.49389,7.01326 -6.47711,17.60768 -7.5726,27.85471z" data-paper-data="{&quot;index&quot;:null}" fill="#d08800" stroke="#000000"/><g data-paper-data="{&quot;index&quot;:null}" fill="#624000" stroke="none"><path d=""/><path d=""/><path d=""/><path d=""/><path d=""/><path d=""/><path d=""/><path d=""/><path d=""/><path d=""/><path d=""/><path d=""/><path d=""/><path d=""/><path d=""/><path d=""/><path d=""/><path d=""/><path d=""/><path d=""/><path d="M176,232.35053h0.19631c-0.07093,0.56149 -0.13644,1.12259 -0.19631,1.68264z"/><path d="M176.3439,220.70107v-11.64946h5.9098c-1.44803,3.41162 -2.7668,7.4015 -3.84409,11.64946z"/><path d=""/><path d=""/><path d=""/><path d=""/><path d=""/><path d=""/><path d=""/><path d=""/><path d=""/><path d=""/><path d=""/><path d="M211.1592,150.79852h8.30786c-2.84396,2.428 -5.82187,5.51146 -8.30786,8.3022z"/><path d=""/><path d=""/><path d=""/><path d=""/><path d="M199.5541,162.44798h8.7332c-0.41319,0.50136 -0.79228,0.97138 -1.13133,1.40104c-0.19943,0.25273 -0.38928,0.51604 -0.57139,0.78792c-0.90006,0.9702 -1.72404,2.01196 -2.46246,3.11581c-1.64706,1.73371 -3.04801,3.70346 -4.14688,5.85327c-0.14239,0.15859 -0.28278,0.31901 -0.42114,0.48122z"/><path d="M199.5541,150.79852v11.64946h-11.6051v-11.64946z"/><path d="M199.2102,174.09745v0.40181c-1.51027,1.84923 -2.76103,3.91873 -3.69669,6.15292c-0.1229,0.17599 -0.24223,0.35268 -0.35755,0.53017c-0.94041,1.4474 -1.80384,2.97846 -2.61398,4.56455h-4.93689v-11.64946z"/><path d="M187.6051,185.74691v11.23558c-0.05642,0.13803 -0.11283,0.276 -0.16927,0.41389h-11.43583v-11.64947z"/><path d="M187.949,162.44798v11.64946h-11.6051v-11.64946z"/><path d=""/><path d=""/><path d=""/><path d=""/><path d=""/><path d="M245.9745,127.49383v3.73055c-3.20656,1.49753 -6.34624,3.15598 -9.36688,5.11463c-0.76215,0.49419 -1.50749,1.03227 -2.23822,1.5993v-10.44448z"/><path d="M222.4204,139.14329h10.46277c-1.71722,1.44723 -3.35813,3.00342 -4.95351,4.45905c-2.0485,1.24776 -3.90345,2.78184 -5.50925,4.54663z"/><path d="M222.42041,127.49383v11.64947h-11.6051v-11.64947z"/><path d="M210.8153,139.14329v11.64946h-11.6051v-11.64946z"/><path d="M199.2102,127.49383v11.64947h-11.6051v-11.64947z"/><path d="M187.6051,139.14329v11.64946h-11.6051v-11.64946z"/><path d=""/><path d="M280.4459,116v1.97931c-0.60124,0.14293 -1.19407,0.30758 -1.77761,0.49307c-0.3647,0.08831 -0.73437,0.17919 -1.10854,0.27272c-3.10644,0.29044 -6.04777,1.14926 -8.71895,2.47143v-5.21653z"/><path d="M257.2357,116v10.01528c-0.9995,0.51881 -1.97657,1.06312 -2.92334,1.63419h-8.68176v-11.64947z"/><path d=""/><path d="M234.0255,116v11.64947h-11.6051v-11.64947z"/><path d="M210.8153,116v11.64947h-11.6051v-11.64947z"/><path d="M187.6051,116v11.64947h-11.6051v-11.64947z"/></g><path d="M176.50002,229.24776l0.6719,0.38369c-0.26925,1.65491 -0.49515,3.31727 -0.6719,4.9706z" data-paper-data="{&quot;index&quot;:null}" fill="#00ff0d" stroke="none"/><path d="M176,244v-128h128v128z" fill="none" stroke="#000000"/></g></g></svg>