<svg version="1.1" xmlns="http://www.w3.org/2000/svg" xmlns:xlink="http://www.w3.org/1999/xlink" width="128.11639" height="128.03674" viewBox="0,0,128.11639,128.03674"><g transform="translate(-176,-115.96326)"><g data-paper-data="{&quot;isPaintingLayer&quot;:true}" fill-rule="nonzero" stroke-width="0" stroke-linecap="butt" stroke-linejoin="miter" stroke-miterlimit="10" stroke-dasharray="" stroke-dashoffset="0" style="mix-blend-mode: normal"><path d="M176.11639,243.99999v-3.01271c-0.00044,-6.14967 0.37305,-12.20343 1.10163,-18.12833c0.37606,-1.5565 0.60647,-3.16982 0.67599,-4.82474c0.3427,-2.17723 0.73384,-4.33538 1.17244,-6.47276c0.7071,-1.93144 1.18271,-3.97446 1.39324,-6.09546c5.20306,-20.62166 14.91089,-39.07462 28.19889,-53.74374c1.62919,-1.32212 3.08877,-2.8451 4.34104,-4.53124c2.50173,-2.46851 5.11408,-4.81138 7.83182,-7.01946c1.41576,-0.8864 2.7364,-1.91066 3.9431,-3.05396c11.8462,-8.7395 25.5126,-15.01802 40.60973,-18.15522c1.86117,-0.03416 3.67264,-0.27171 5.41312,-0.69135c1.56234,-0.07472 3.0871,-0.29286 4.56139,-0.64153c1.26997,-0.02203 2.51686,-0.13877 3.73391,-0.34344c1.45694,-0.04827 2.88233,-0.22121 4.26582,-0.50848c0.50198,-0.01954 1.00521,-0.0358 1.50967,-0.04874c2.21938,-0.1501 4.60024,0.62453 6.83125,0.30235c1.90694,0 3.76401,-0.2135 5.54862,-0.61791c0.32725,-0.04358 0.65249,-0.09349 0.97561,-0.1496c0.45007,0.02412 0.9033,0.03633 1.35939,0.03633c1.32132,0 2.61869,-0.10251 3.8846,-0.3h0.64874v128z" data-paper-data="{&quot;index&quot;:null}" fill="#d08800" stroke="#000000"/><g data-paper-data="{&quot;index&quot;:null}" fill="#624000" stroke="none"><path d="M292.051,127.58495v-11.02016c0.61586,0.04542 1.23792,0.06854 1.86538,0.06854c1.46879,0 2.90799,-0.12666 4.30728,-0.36966c0.45007,0.02412 0.9033,0.03633 1.35939,0.03633c1.38696,0 2.74754,-0.11295 4.07305,-0.33014v11.61509z"/><path d="M280.7898,139.23441v-11.64946h11.6051v11.64946z"/><path d="M269.1847,150.88387v-11.64946h11.6051v11.64946z"/><path d="M257.5796,162.53334v-11.64946h11.6051v11.64946z"/><path d="M268.84081,127.58495v-8.92453c0.66116,-0.10424 1.31371,-0.2344 1.95657,-0.3894c1.56234,-0.07472 3.0871,-0.29286 4.56139,-0.64153c1.26997,-0.02203 2.51686,-0.13877 3.73391,-0.34344c0.45425,-0.01505 0.90542,-0.04222 1.35322,-0.08119v10.38009z"/><path d="M257.5796,139.23441v-11.64946h11.6051v11.64946z"/><path d="M245.6306,127.58494v-2.77124c1.54004,-0.62385 3.00378,-1.39672 4.37334,-2.30072c0.36017,-0.12882 0.71653,-0.26567 1.06885,-0.41034c2.15141,-0.27104 4.21767,-0.81548 6.16291,-1.59742v7.07973z"/><path d="M245.9745,150.88387v-11.64946h11.6051v11.64946z"/><path d="M234.3694,162.53334v-11.64946h11.6051v11.64946z"/><path d="M234.3694,139.23441v-9.0673c1.59309,-0.70606 3.09863,-1.57371 4.49582,-2.58216h7.10928v11.64946z"/><path d=""/><path d="M222.7643,150.88387v-11.64946h11.6051v11.64946z"/><path d="M211.1592,162.53334v-11.64946h11.6051v11.64946z"/><path d="M222.22238,139.23441c0.06626,-0.04795 0.13227,-0.09621 0.19804,-0.14478v0.14478z"/><path d="M280.7898,162.53334v-11.64946h11.6051v11.64946z"/><path d="M292.3949,150.88387v-11.64946h11.6051v11.64946z"/><path d=""/><path d="M209.63914,150.88387c0.52751,-0.47498 1.03469,-0.9721 1.52007,-1.4899v1.4899z"/><path d=""/><path d=""/><path d=""/><path d=""/><path d="M292.051,174.18857v-11.64947h11.6051v11.64947z"/><path d="M280.7898,185.83803v-11.64946h11.6051v11.64946z"/><path d="M269.1847,197.4875v-11.64946h11.6051v11.64946z"/><path d="M257.5796,209.13696v-11.64946h11.6051v11.64946z"/><path d="M268.8408,174.18857v-11.64947h11.6051v11.64947z"/><path d="M257.5796,185.83803v-11.64946h11.6051v11.64946z"/><path d="M245.6306,174.18857v-11.64947h11.6051v11.64947z"/><path d="M245.9745,197.4875v-11.64946h11.6051v11.64946z"/><path d="M234.3694,209.13696v-11.64946h11.6051v11.64946z"/><path d="M234.3694,185.83803v-11.64946h11.6051v11.64946z"/><path d="M222.4204,174.18857v-11.64947h11.6051v11.64947z"/><path d="M211.1592,209.13696v-11.64946h11.6051v11.64946z"/><path d="M210.81532,185.83803v-11.64946h11.6051v11.64946z"/><path d="M280.7898,209.13696v-11.64946h11.6051v11.64946z"/><path d="M292.3949,197.4875v-11.64946h11.6051v11.64946z"/><path d="M199.2102,174.18857v-11.21401c0.1287,-0.14366 0.25575,-0.28883 0.38114,-0.43546h11.22396v11.64947z"/><path d="M199.55411,197.4875v-11.64946h11.6051v11.64946z"/><path d="M187.94901,209.13696v-11.64946h11.6051v11.64946z"/><path d="M187.6051,185.83803v-1.44213c0.30294,-0.7135 0.57368,-1.44397 0.8104,-2.1896c0.8735,-1.66959 1.56389,-3.45009 2.04452,-5.31486c0.68439,-0.85675 1.31363,-1.7595 1.88232,-2.70287h6.86786v11.64946z"/><path d=""/><path d="M182.30317,197.4875c0.26828,-0.70825 0.50532,-1.43187 0.70942,-2.16917c0.79134,-1.73733 1.38963,-3.58115 1.76746,-5.50403c0.19568,-0.40567 0.38072,-0.81743 0.55476,-1.23492c0.58986,-0.87599 1.12572,-1.79136 1.60281,-2.74134h1.01138v11.64946z"/><path d="M292.051,220.79219v-11.64946h11.6051v11.64946z"/><path d="M280.7898,232.44165v-11.64947h11.6051v11.64947z"/><path d="M268.8408,220.79219v-11.64946h11.6051v11.64946z"/><path d="M257.5796,232.44165v-11.64947h11.6051v11.64947z"/><path d="M245.6306,220.79219v-11.64946h11.6051v11.64946z"/><path d="M234.3694,232.44165v-11.64947h11.6051v11.64947z"/><path d="M222.4204,220.79219v-11.64946h11.6051v11.64946z"/><path d="M210.81532,232.44165v-11.64947h11.6051v11.64947z"/><path d="M199.2102,220.79219v-11.64946h11.6051v11.64946z"/><path d="M187.6051,232.44165v-11.64947h11.6051v11.64947z"/><path d="M177.62552,220.79219c0.19152,-1.24719 0.29086,-2.52476 0.29086,-3.82553c0,-0.07872 -0.00036,-0.15735 -0.00109,-0.2359c0.19418,-0.8228 0.3477,-1.66131 0.45833,-2.51329c0.18477,-0.67857 0.34168,-1.36864 0.46941,-2.06888c0.38461,-0.97351 0.70987,-1.97695 0.97132,-3.00586h7.79075v11.64946z"/><path d="M292.051,243.93548v-11.64947h11.6051v11.64947z"/><path d="M268.8408,243.93548v-11.64947h11.6051v11.64947z"/><path d="M245.6306,243.93548v-11.64947h11.6051v11.64947z"/><path d="M222.7643,197.4875v-11.64946h11.6051v11.64946z"/><path d="M222.4204,243.93548v-11.64947h11.6051v11.64947z"/><path d="M199.2102,243.93548v-11.64947h11.6051v11.64947z"/><path d="M176,243.93548l0.33333,-11.64947h11.27177v11.64947z"/></g><path d="" data-paper-data="{&quot;index&quot;:null}" fill="#d08800" stroke="#000000"/><path d="" data-paper-data="{&quot;index&quot;:null}" fill="#00d40b" stroke="none"/><path d="" data-paper-data="{&quot;index&quot;:null}" fill="#00d40b" stroke="none"/><path d="" data-paper-data="{&quot;index&quot;:null}" fill="#00ff0d" stroke="none"/><path d="M296.82425,150.60821l-6.08209,-14.73214l-4.19789,16.31255l-3.76426,-16.53627l-0.69174,7.02415l-2.34109,-7.02343l1.36575,10.88538l-4.79835,-9.9956l-1.59907,21.12598l-7.6562,-24.86568l2.83339,25.08455l-7.17803,-24.44916l-5.31296,11.54045l-8.81808,-8.56069l-4.87321,3.028l-2.65689,-3.1684c0.17378,-0.16171 -5.31986,-5.99091 -5.14759,-6.1543c6.35989,-6.03213 14.59939,1.24519 21.89024,-3.62085c4.7468,-2.05512 9.57429,-3.83188 14.40967,-5.56727h31.79417v15.32121z" data-paper-data="{&quot;index&quot;:null}" fill="#00d40b" stroke="none"/><path d="M225.58187,148.64394c0.41421,-0.29834 0.82857,-0.59653 1.2428,-0.89486l0.38244,2.95868z" data-paper-data="{&quot;index&quot;:null}" fill="#00d40b" stroke="none"/><path d="M296.82424,145.60823l-6.08209,-14.73214l-4.19789,16.31255l-3.76426,-16.53627l-0.69174,7.02415l-2.34109,-7.02343l1.36575,10.88538l-4.79835,-9.9956l-1.59907,21.12598l-7.6562,-24.86568l2.83339,25.08455l-7.17803,-24.44916l-5.31296,11.54045l-20.9369,-10.0191c2.06321,-0.94071 5.53212,-3.01594 8.02008,-4.71465c1.96268,-0.68446 3.81387,-1.60672 5.51907,-2.73227c0.19374,-0.06929 0.38637,-0.14091 0.57787,-0.21482c0.27041,-0.07957 0.55033,-0.16024 0.83899,-0.24185c1.89835,-0.26629 3.72833,-0.74579 5.46493,-1.41349c2.39592,-0.57597 4.98555,-1.1525 7.5413,-1.68086c0.16274,0.00312 0.32586,0.00469 0.48935,0.00469c2.02563,0 3.99499,-0.24091 5.88099,-0.69564c1.56234,-0.07472 3.0871,-0.29286 4.56139,-0.64153c1.26997,-0.02203 2.51686,-0.13877 3.73391,-0.34344c1.87112,-0.06199 3.69019,-0.3296 5.43532,-0.78096l5.56223,-0.16271c1.24739,0.19157 2.52516,0.29095 3.82615,0.29095c1.46879,0 2.90799,-0.12666 4.30728,-0.36966c0.45007,0.02412 0.9033,0.03633 1.35939,0.03633c1.39412,0 2.76157,-0.11411 4.09355,-0.3335c0.10797,-0.0004 0.21577,-0.00148 0.32341,-0.00324v15.29343z" data-paper-data="{&quot;index&quot;:null}" fill="#00ff0d" stroke="none"/><path d="M243.66076,134.37861c0.86777,-0.59945 1.80191,-1.12921 2.76999,-1.62262l-2.72035,1.69031z" data-paper-data="{&quot;index&quot;:null}" fill="#00ff0d" stroke="none"/><path d="M176,244v-128h128v128z" fill="none" stroke="#000000"/></g></g></svg>