<svg version="1.1" xmlns="http://www.w3.org/2000/svg" xmlns:xlink="http://www.w3.org/1999/xlink" width="128.11639" height="128.03014" viewBox="0,0,128.11639,128.03014"><g transform="translate(-176,-115.96986)"><g data-paper-data="{&quot;isPaintingLayer&quot;:true}" fill-rule="nonzero" stroke-width="0" stroke-linecap="butt" stroke-linejoin="miter" stroke-miterlimit="10" stroke-dasharray="" stroke-dashoffset="0" style="mix-blend-mode: normal"><path d="M304,115.96987v3.01271c0.00044,6.14967 -0.37305,12.20343 -1.10163,18.12833c-0.37606,1.5565 -0.60647,3.16982 -0.67599,4.82474c-0.3427,2.17723 -0.73384,4.33538 -1.17244,6.47276c-0.7071,1.93144 -1.18271,3.97446 -1.39324,6.09546c-5.20306,20.62166 -14.91089,39.07462 -28.19889,53.74374c-1.62919,1.32212 -3.08877,2.8451 -4.34104,4.53124c-2.50173,2.46851 -5.11408,4.81138 -7.83182,7.01946c-1.41576,0.8864 -2.7364,1.91066 -3.9431,3.05396c-11.8462,8.7395 -25.5126,15.01802 -40.60973,18.15522c-1.86117,0.03416 -3.67264,0.27171 -5.41312,0.69135c-1.56234,0.07472 -3.0871,0.29286 -4.56139,0.64153c-1.26997,0.02203 -2.51686,0.13877 -3.73391,0.34344c-1.45694,0.04827 -2.88233,0.22121 -4.26582,0.50848c-0.50198,0.01954 -1.00521,0.0358 -1.50967,0.04874c-2.21938,0.1501 -4.60024,-0.62453 -6.83125,-0.30235c-1.90694,0 -3.76401,0.2135 -5.54862,0.61791c-0.32725,0.04358 -0.65249,0.09349 -0.97561,0.1496c-0.45007,-0.02412 -0.9033,-0.03633 -1.35939,-0.03633c-1.32132,0 -2.61869,0.10251 -3.8846,0.3h-0.64874v-128z" data-paper-data="{&quot;index&quot;:null}" fill="#d08800" stroke="#000000"/><g data-paper-data="{&quot;index&quot;:null}" fill="#624000" stroke="none"><path d="M188.06539,232.38491v11.02016c-0.61586,-0.04542 -1.23792,-0.06854 -1.86538,-0.06854c-1.46879,0 -2.90799,0.12666 -4.30728,0.36966c-0.45007,-0.02412 -0.9033,-0.03633 -1.35939,-0.03633c-1.38696,0 -2.74754,0.11295 -4.07305,0.33014v-11.61509z"/><path d="M199.32659,220.73545v11.64946h-11.6051v-11.64946z"/><path d="M210.93169,209.08599v11.64946h-11.6051v-11.64946z"/><path d="M222.53679,197.43652v11.64946h-11.6051v-11.64946z"/><path d="M211.27558,232.38491v8.92453c-0.66116,0.10424 -1.31371,0.2344 -1.95657,0.3894c-1.56234,0.07472 -3.0871,0.29286 -4.56139,0.64153c-1.26997,0.02203 -2.51686,0.13877 -3.73391,0.34344c-0.45425,0.01505 -0.90542,0.04222 -1.35322,0.08119v-10.38009z"/><path d="M222.53679,220.73545v11.64946h-11.6051v-11.64946z"/><path d="M234.48579,232.38492v2.77124c-1.54004,0.62385 -3.00378,1.39672 -4.37334,2.30072c-0.36017,0.12882 -0.71653,0.26567 -1.06885,0.41034c-2.15141,0.27104 -4.21767,0.81548 -6.16291,1.59742v-7.07973z"/><path d="M234.14189,209.08599v11.64946h-11.6051v-11.64946z"/><path d="M245.74699,197.43652v11.64946h-11.6051v-11.64946z"/><path d="M245.74699,220.73545v9.0673c-1.59309,0.70606 -3.09863,1.57371 -4.49582,2.58216h-7.10928v-11.64946z"/><path d=""/><path d="M257.35209,209.08599v11.64946h-11.6051v-11.64946z"/><path d="M268.95719,197.43652v11.64946h-11.6051v-11.64946z"/><path d="M257.89401,220.73545c-0.06626,0.04795 -0.13227,0.09621 -0.19804,0.14478v-0.14478z"/><path d="M199.32659,197.43652v11.64946h-11.6051v-11.64946z"/><path d="M187.72149,209.08599v11.64946h-11.6051v-11.64946z"/><path d=""/><path d="M270.47725,209.08599c-0.52751,0.47498 -1.03469,0.9721 -1.52007,1.4899v-1.4899z"/><path d=""/><path d=""/><path d=""/><path d=""/><path d="M188.06539,185.78129v11.64947h-11.6051v-11.64947z"/><path d="M199.32659,174.13183v11.64946h-11.6051v-11.64946z"/><path d="M210.93169,162.48236v11.64946h-11.6051v-11.64946z"/><path d="M222.53679,150.8329v11.64946h-11.6051v-11.64946z"/><path d="M211.27559,185.78129v11.64947h-11.6051v-11.64947z"/><path d="M222.53679,174.13183v11.64946h-11.6051v-11.64946z"/><path d="M234.48579,185.78129v11.64947h-11.6051v-11.64947z"/><path d="M234.14189,162.48236v11.64946h-11.6051v-11.64946z"/><path d="M245.74699,150.8329v11.64946h-11.6051v-11.64946z"/><path d="M245.74699,174.13183v11.64946h-11.6051v-11.64946z"/><path d="M257.69599,185.78129v11.64947h-11.6051v-11.64947z"/><path d="M268.95719,150.8329v11.64946h-11.6051v-11.64946z"/><path d="M269.30107,174.13183v11.64946h-11.6051v-11.64946z"/><path d="M199.32659,150.8329v11.64946h-11.6051v-11.64946z"/><path d="M187.72149,162.48236v11.64946h-11.6051v-11.64946z"/><path d="M280.90619,185.78129v11.21401c-0.1287,0.14366 -0.25575,0.28883 -0.38114,0.43546h-11.22396v-11.64947z"/><path d="M280.56228,162.48236v11.64946h-11.6051v-11.64946z"/><path d="M292.16738,150.8329v11.64946h-11.6051v-11.64946z"/><path d="M292.51129,174.13183v1.44213c-0.30294,0.7135 -0.57368,1.44397 -0.8104,2.1896c-0.8735,1.66959 -1.56389,3.45009 -2.04452,5.31486c-0.68439,0.85675 -1.31363,1.7595 -1.88232,2.70287h-6.86786v-11.64946z"/><path d=""/><path d="M297.81322,162.48236c-0.26828,0.70825 -0.50532,1.43187 -0.70942,2.16917c-0.79134,1.73733 -1.38963,3.58115 -1.76746,5.50403c-0.19568,0.40567 -0.38072,0.81743 -0.55476,1.23492c-0.58986,0.87599 -1.12572,1.79136 -1.60281,2.74134h-1.01138v-11.64946z"/><path d="M188.06539,139.17767v11.64946h-11.6051v-11.64946z"/><path d="M199.32659,127.52821v11.64947h-11.6051v-11.64947z"/><path d="M211.27559,139.17767v11.64946h-11.6051v-11.64946z"/><path d="M222.53679,127.52821v11.64947h-11.6051v-11.64947z"/><path d="M234.48579,139.17767v11.64946h-11.6051v-11.64946z"/><path d="M245.74699,127.52821v11.64947h-11.6051v-11.64947z"/><path d="M257.69599,139.17767v11.64946h-11.6051v-11.64946z"/><path d="M269.30107,127.52821v11.64947h-11.6051v-11.64947z"/><path d="M280.90619,139.17767v11.64946h-11.6051v-11.64946z"/><path d="M292.51129,127.52821v11.64947h-11.6051v-11.64947z"/><path d="M302.49087,139.17767c-0.19152,1.24719 -0.29086,2.52476 -0.29086,3.82553c0,0.07872 0.00036,0.15735 0.00109,0.2359c-0.19418,0.8228 -0.3477,1.66131 -0.45833,2.51329c-0.18477,0.67857 -0.34168,1.36864 -0.46941,2.06888c-0.38461,0.97351 -0.70987,1.97695 -0.97132,3.00586h-7.79075v-11.64946z"/><path d="M188.06539,116.03438v11.64947h-11.6051v-11.64947z"/><path d="M211.27559,116.03438v11.64947h-11.6051v-11.64947z"/><path d="M234.48579,116.03438v11.64947h-11.6051v-11.64947z"/><path d="M257.35209,162.48236v11.64946h-11.6051v-11.64946z"/><path d="M257.69599,116.03438v11.64947h-11.6051v-11.64947z"/><path d="M280.90619,116.03438v11.64947h-11.6051v-11.64947z"/><path d="M304.11639,116.03438l-0.33333,11.64947h-11.27177v-11.64947z"/></g><path d="" data-paper-data="{&quot;index&quot;:null}" fill="#d08800" stroke="#000000"/><path d="" data-paper-data="{&quot;index&quot;:null}" fill="#00d40b" stroke="none"/><path d="" data-paper-data="{&quot;index&quot;:null}" fill="#00d40b" stroke="none"/><path d="" data-paper-data="{&quot;index&quot;:null}" fill="#00ff0d" stroke="none"/><path d="M254.53452,211.32592c-0.41421,0.29834 -0.82857,0.59653 -1.2428,0.89486l-0.38244,-2.95868z" data-paper-data="{&quot;index&quot;:null}" fill="#00d40b" stroke="none"/><path d="M236.45563,225.59125c-0.86777,0.59945 -1.80191,1.12921 -2.76999,1.62262l2.72035,-1.69031z" data-paper-data="{&quot;index&quot;:null}" fill="#00ff0d" stroke="none"/><path d="M176,244v-128h128v128z" fill="none" stroke="#000000"/></g></g></svg>