<svg version="1.1" xmlns="http://www.w3.org/2000/svg" xmlns:xlink="http://www.w3.org/1999/xlink" width="128.11639" height="128.03674" viewBox="0,0,128.11639,128.03674"><g transform="translate(-176,-115.96326)"><g data-paper-data="{&quot;isPaintingLayer&quot;:true}" fill-rule="nonzero" stroke-width="0" stroke-linecap="butt" stroke-linejoin="miter" stroke-miterlimit="10" stroke-dasharray="" stroke-dashoffset="0" style="mix-blend-mode: normal"><path d="M176,244v-128h0.64874c1.26591,0.19749 2.56328,0.3 3.8846,0.3c0.45609,0 0.90932,-0.01221 1.35939,-0.03633c0.32312,0.05611 0.64836,0.10602 0.97561,0.1496c1.78461,0.40441 3.64168,0.61791 5.54862,0.61791c2.23101,0.32218 4.61187,-0.45245 6.83125,-0.30235c0.50446,0.01294 1.00769,0.0292 1.50967,0.04874c1.38349,0.28727 2.80888,0.46021 4.26582,0.50848c1.21705,0.20467 2.46394,0.32141 3.73391,0.34344c1.47429,0.34867 2.99905,0.56681 4.56139,0.64153c1.74048,0.41964 3.55195,0.65719 5.41312,0.69135c15.09713,3.1372 28.76353,9.41572 40.60973,18.15522c1.2067,1.1433 2.52734,2.16756 3.9431,3.05396c2.71774,2.20808 5.33009,4.55095 7.83182,7.01946c1.25227,1.68614 2.71185,3.20912 4.34104,4.53124c13.288,14.66912 22.99583,33.12208 28.19889,53.74374c0.21053,2.121 0.68614,4.16402 1.39324,6.09546c0.4386,2.13738 0.82974,4.29553 1.17244,6.47276c0.06952,1.65492 0.29993,3.26824 0.67599,4.82474c0.72858,5.9249 1.10207,11.97866 1.10163,18.12833v3.01271z" fill="#d08800" stroke="#000000"/><g fill="#624000" stroke="none"><path d="M176.46029,127.58495v-11.61509c1.32551,0.21719 2.68609,0.33014 4.07305,0.33014c0.45609,0 0.90932,-0.01221 1.35939,-0.03633c1.39929,0.243 2.83849,0.36966 4.30728,0.36966c0.62746,0 1.24952,-0.02312 1.86538,-0.06854v11.02016z"/><path d="M187.72149,139.23441v-11.64946h11.6051v11.64946z"/><path d="M199.32659,150.88387v-11.64946h11.6051v11.64946z"/><path d="M210.93169,162.53334v-11.64946h11.6051v11.64946z"/><path d="M199.67049,127.58495v-10.38009c0.4478,0.03897 0.89897,0.06614 1.35322,0.08119c1.21705,0.20467 2.46394,0.32141 3.73391,0.34344c1.47429,0.34867 2.99905,0.56681 4.56139,0.64153c0.64286,0.155 1.29541,0.28516 1.95657,0.3894v8.92453z"/><path d="M210.93169,139.23441v-11.64946h11.6051v11.64946z"/><path d="M222.88069,127.58495v-7.07973c1.94524,0.78194 4.0115,1.32638 6.16291,1.59742c0.35232,0.14467 0.70868,0.28152 1.06885,0.41034c1.36956,0.904 2.8333,1.67687 4.37334,2.30072v2.77124z"/><path d="M222.53679,150.88387v-11.64946h11.6051v11.64946z"/><path d="M234.14189,162.53334v-11.64946h11.6051v11.64946z"/><path d="M234.14189,139.23441v-11.64946h7.10928c1.39719,1.00845 2.90273,1.8761 4.49582,2.58216v9.0673z"/><path d=""/><path d="M245.74699,150.88387v-11.64946h11.6051v11.64946z"/><path d="M257.35209,162.53334v-11.64946h11.6051v11.64946z"/><path d="M257.69597,139.23441v-0.14478c0.06577,0.04857 0.13178,0.09683 0.19804,0.14478z"/><path d="M187.72149,162.53334v-11.64946h11.6051v11.64946z"/><path d="M176.11639,150.88387v-11.64946h11.6051v11.64946z"/><path d=""/><path d="M268.95718,150.88387v-1.4899c0.48538,0.5178 0.99256,1.01492 1.52007,1.4899z"/><path d=""/><path d=""/><path d=""/><path d=""/><path d="M176.46029,174.18857v-11.64947h11.6051v11.64947z"/><path d="M187.72149,185.83803v-11.64946h11.6051v11.64946z"/><path d="M199.32659,197.4875v-11.64946h11.6051v11.64946z"/><path d="M210.93169,209.13696v-11.64946h11.6051v11.64946z"/><path d="M199.67049,174.18857v-11.64947h11.6051v11.64947z"/><path d="M210.93169,185.83803v-11.64946h11.6051v11.64946z"/><path d="M222.88069,174.18857v-11.64947h11.6051v11.64947z"/><path d="M222.53679,197.4875v-11.64946h11.6051v11.64946z"/><path d="M234.14189,209.13696v-11.64946h11.6051v11.64946z"/><path d="M234.14189,185.83803v-11.64946h11.6051v11.64946z"/><path d="M246.09089,174.18857v-11.64947h11.6051v11.64947z"/><path d="M257.35209,209.13696v-11.64946h11.6051v11.64946z"/><path d="M257.69597,185.83803v-11.64946h11.6051v11.64946z"/><path d="M187.72149,209.13696v-11.64946h11.6051v11.64946z"/><path d="M176.11639,197.4875v-11.64946h11.6051v11.64946z"/><path d="M269.30109,174.18857v-11.64947h11.22396c0.12539,0.14663 0.25244,0.2918 0.38114,0.43546v11.21401z"/><path d="M268.95718,197.4875v-11.64946h11.6051v11.64946z"/><path d="M280.56228,209.13696v-11.64946h11.6051v11.64946z"/><path d="M280.90619,185.83803v-11.64946h6.86786c0.56869,0.94337 1.19793,1.84612 1.88232,2.70287c0.48063,1.86477 1.17102,3.64527 2.04452,5.31486c0.23672,0.74563 0.50746,1.4761 0.8104,2.1896v1.44213z"/><path d=""/><path d="M292.16739,197.4875v-11.64946h1.01138c0.47709,0.94998 1.01295,1.86535 1.60281,2.74134c0.17404,0.41749 0.35908,0.82925 0.55476,1.23492c0.37783,1.92288 0.97612,3.7667 1.76746,5.50403c0.2041,0.7373 0.44114,1.46092 0.70942,2.16917z"/><path d="M176.46029,220.79219v-11.64946h11.6051v11.64946z"/><path d="M187.72149,232.44165v-11.64947h11.6051v11.64947z"/><path d="M199.67049,220.79219v-11.64946h11.6051v11.64946z"/><path d="M210.93169,232.44165v-11.64947h11.6051v11.64947z"/><path d="M222.88069,220.79219v-11.64946h11.6051v11.64946z"/><path d="M234.14189,232.44165v-11.64947h11.6051v11.64947z"/><path d="M246.09089,220.79219v-11.64946h11.6051v11.64946z"/><path d="M257.69597,232.44165v-11.64947h11.6051v11.64947z"/><path d="M269.30109,220.79219v-11.64946h11.6051v11.64946z"/><path d="M280.90619,232.44165v-11.64947h11.6051v11.64947z"/><path d="M292.51129,220.79219v-11.64946h7.79075c0.26145,1.02891 0.58671,2.03235 0.97132,3.00586c0.12773,0.70024 0.28464,1.39031 0.46941,2.06888c0.11063,0.85198 0.26415,1.69049 0.45833,2.51329c-0.00073,0.07855 -0.00109,0.15718 -0.00109,0.2359c0,1.30077 0.09934,2.57834 0.29086,3.82553z"/><path d="M176.46029,243.93548v-11.64947h11.6051v11.64947z"/><path d="M199.67049,243.93548v-11.64947h11.6051v11.64947z"/><path d="M222.88069,243.93548v-11.64947h11.6051v11.64947z"/><path d="M245.74699,197.4875v-11.64946h11.6051v11.64946z"/><path d="M246.09089,243.93548v-11.64947h11.6051v11.64947z"/><path d="M269.30109,243.93548v-11.64947h11.6051v11.64947z"/><path d="M292.51129,243.93548v-11.64947h11.27177l0.33333,11.64947z"/></g><path d="" fill="#d08800" stroke="#000000"/><path d="" fill="#00d40b" stroke="none"/><path d="" fill="#00d40b" stroke="none"/><path d="" fill="#00ff0d" stroke="none"/><path d="M176.11637,136.25669v-15.32121h31.79417c4.83538,1.73539 9.66287,3.51215 14.40967,5.56727c7.29085,4.86604 15.53035,-2.41128 21.89024,3.62085c0.17227,0.16339 -5.32137,5.99259 -5.14759,6.1543l-2.65689,3.1684l-4.87321,-3.028l-8.81808,8.56069l-5.31296,-11.54045l-7.17803,24.44916l2.83339,-25.08455l-7.6562,24.86568l-1.59907,-21.12598l-4.79835,9.9956l1.36575,-10.88538l-2.34109,7.02343l-0.69174,-7.02415l-3.76426,16.53627l-4.19789,-16.31255l-6.08209,14.73214z" fill="#00d40b" stroke="none"/><path d="M252.90928,150.70776l0.38244,-2.95868c0.41423,0.29833 0.82859,0.59652 1.2428,0.89486z" fill="#00d40b" stroke="none"/><path d="M176.11638,131.25669v-15.29343c0.10764,0.00176 0.21544,0.00284 0.32341,0.00324c1.33198,0.21939 2.69943,0.3335 4.09355,0.3335c0.45609,0 0.90932,-0.01221 1.35939,-0.03633c1.39929,0.243 2.83849,0.36966 4.30728,0.36966c1.30099,0 2.57876,-0.09938 3.82615,-0.29095l5.56223,0.16271c1.74513,0.45136 3.5642,0.71897 5.43532,0.78096c1.21705,0.20467 2.46394,0.32141 3.73391,0.34344c1.47429,0.34867 2.99905,0.56681 4.56139,0.64153c1.886,0.45473 3.85536,0.69564 5.88099,0.69564c0.16349,0 0.32661,-0.00157 0.48935,-0.00469c2.55575,0.52836 5.14538,1.10489 7.5413,1.68086c1.7366,0.6677 3.56658,1.1472 5.46493,1.41349c0.28866,0.08161 0.56858,0.16228 0.83899,0.24185c0.1915,0.07391 0.38413,0.14553 0.57787,0.21482c1.7052,1.12555 3.55639,2.04781 5.51907,2.73227c2.48796,1.69871 5.95687,3.77394 8.02008,4.71465l-20.9369,10.0191l-5.31296,-11.54045l-7.17803,24.44916l2.83339,-25.08455l-7.6562,24.86568l-1.59907,-21.12598l-4.79835,9.9956l1.36575,-10.88538l-2.34109,7.02343l-0.69174,-7.02415l-3.76426,16.53627l-4.19789,-16.31255l-6.08209,14.73214z" fill="#00ff0d" stroke="none"/><path d="M236.40599,134.4463l-2.72035,-1.69031c0.96808,0.49341 1.90222,1.02317 2.76999,1.62262z" fill="#00ff0d" stroke="none"/><path d="M176,244v-128h128v128z" fill="none" stroke="#000000"/></g></g></svg>