<svg version="1.1" xmlns="http://www.w3.org/2000/svg" xmlns:xlink="http://www.w3.org/1999/xlink" width="128.11637" height="128.06452" viewBox="0,0,128.11637,128.06452"><g transform="translate(-176,-115.93548)"><g data-paper-data="{&quot;isPaintingLayer&quot;:true}" fill-rule="nonzero" stroke-width="0" stroke-linecap="butt" stroke-linejoin="miter" stroke-miterlimit="10" stroke-dasharray="" stroke-dashoffset="0" style="mix-blend-mode: normal"><path d="M176.11637,243.93548v-128h128v128z" fill="#875800" stroke="#000000"/><g fill="#170f00" stroke="none"><path d="M176.46028,127.58494v-11.64946h11.6051v11.64946z"/><path d="M187.72147,139.23441v-11.64946h11.6051v11.64946z"/><path d="M199.32657,150.88387v-11.64946h11.6051v11.64946z"/><path d="M210.93167,162.53334v-11.64946h11.6051v11.64946z"/><path d="M199.67048,127.58494v-11.64946h11.6051v11.64946z"/><path d="M210.93167,139.23441v-11.64946h11.6051v11.64946z"/><path d="M222.88068,127.58494v-11.64946h11.6051v11.64946z"/><path d="M222.53677,150.88387v-11.64946h11.6051v11.64946z"/><path d="M234.14187,162.53334v-11.64946h11.6051v11.64946z"/><path d="M234.14187,139.23441v-11.64946h11.6051v11.64946z"/><path d="M246.09088,127.58494v-11.64946h11.6051v11.64946z"/><path d="M245.74697,150.88387v-11.64946h11.6051v11.64946z"/><path d="M257.35207,162.53334v-11.64946h11.6051v11.64946z"/><path d="M257.69598,139.23441v-11.64946h11.6051v11.64946z"/><path d="M187.72147,162.53334v-11.64946h11.6051v11.64946z"/><path d="M176.11637,150.88387v-11.64946h11.6051v11.64946z"/><path d="M269.30108,127.58494v-11.64946h11.6051v11.64946z"/><path d="M268.95717,150.88387v-11.64946h11.6051v11.64946z"/><path d="M280.56227,162.53334v-11.64946h11.6051v11.64946z"/><path d="M280.90618,139.23441v-11.64946h11.6051v11.64946z"/><path d="M292.51127,127.58494v-11.64946h11.6051v11.64946z"/><path d="M292.16737,150.88387v-11.64946h11.6051v11.64946z"/><path d="M176.46027,174.18856v-11.64946h11.6051v11.64946z"/><path d="M187.72147,185.83803v-11.64946h11.6051v11.64946z"/><path d="M199.32657,197.48749v-11.64946h11.6051v11.64946z"/><path d="M210.93167,209.13696v-11.64946h11.6051v11.64946z"/><path d="M199.67047,174.18856v-11.64946h11.6051v11.64946z"/><path d="M210.93167,185.83803v-11.64946h11.6051v11.64946z"/><path d="M222.88067,174.18856v-11.64946h11.6051v11.64946z"/><path d="M222.53677,197.48749v-11.64946h11.6051v11.64946z"/><path d="M234.14187,209.13696v-11.64946h11.6051v11.64946z"/><path d="M234.14187,185.83803v-11.64946h11.6051v11.64946z"/><path d="M246.09087,174.18856v-11.64946h11.6051v11.64946z"/><path d="M257.35207,209.13696v-11.64946h11.6051v11.64946z"/><path d="M257.69597,185.83803v-11.64946h11.6051v11.64946z"/><path d="M187.72147,209.13696v-11.64946h11.6051v11.64946z"/><path d="M176.11637,197.48749v-11.64946h11.6051v11.64946z"/><path d="M269.30107,174.18856v-11.64946h11.6051v11.64946z"/><path d="M268.95717,197.48749v-11.64946h11.6051v11.64946z"/><path d="M280.56227,209.13696v-11.64946h11.6051v11.64946z"/><path d="M280.90617,185.83803v-11.64946h11.6051v11.64946z"/><path d="M292.51127,174.18856v-11.64946h11.6051v11.64946z"/><path d="M292.16737,197.48749v-11.64946h11.6051v11.64946z"/><path d="M176.46027,220.79219v-11.64946h11.6051v11.64946z"/><path d="M187.72147,232.44165v-11.64946h11.6051v11.64946z"/><path d="M199.67047,220.79219v-11.64946h11.6051v11.64946z"/><path d="M210.93167,232.44165v-11.64946h11.6051v11.64946z"/><path d="M222.88067,220.79219v-11.64946h11.6051v11.64946z"/><path d="M234.14187,232.44165v-11.64946h11.6051v11.64946z"/><path d="M246.09087,220.79219v-11.64946h11.6051v11.64946z"/><path d="M257.69597,232.44165v-11.64946h11.6051v11.64946z"/><path d="M269.30107,220.79219v-11.64946h11.6051v11.64946z"/><path d="M280.90617,232.44165v-11.64946h11.6051v11.64946z"/><path d="M292.51127,220.79219v-11.64946h11.6051v11.64946z"/><path d="M176.46027,243.93548v-11.64946h11.6051v11.64946z"/><path d="M199.67047,243.93548v-11.64946h11.6051v11.64946z"/><path d="M222.88067,243.93548v-11.64946h11.6051v11.64946z"/><path d="M245.74697,197.48749v-11.64946h11.6051v11.64946z"/><path d="M246.09087,243.93548v-11.64946h11.6051v11.64946z"/><path d="M269.30107,243.93548v-11.64946h11.6051v11.64946z"/><path d="M292.51127,243.93548v-11.64946h11.6051v11.64946z"/></g><path d="M176,244v-128h128v128z" fill="none" stroke="#000000"/></g></g></svg>