<svg version="1.1" xmlns="http://www.w3.org/2000/svg" xmlns:xlink="http://www.w3.org/1999/xlink" width="128" height="128" viewBox="0,0,128,128"><g transform="translate(-176,-116)"><g data-paper-data="{&quot;isPaintingLayer&quot;:true}" fill-rule="nonzero" stroke-width="0" stroke-linecap="butt" stroke-linejoin="miter" stroke-miterlimit="10" stroke-dasharray="" stroke-dashoffset="0" style="mix-blend-mode: normal"><path d="M303.99999,234.03308c-1.09549,-10.24703 -4.07871,-20.84145 -7.5726,-27.85471c-3.96469,-7.95829 -6.76269,-17.57643 -11.58336,-24.99602c-0.11532,-0.17749 -0.23465,-0.35418 -0.35755,-0.53017c-1.08937,-2.60121 -2.60584,-4.97916 -4.46173,-7.04617c-1.09887,-2.14981 -2.49982,-4.11956 -4.14688,-5.85327c-0.73842,-1.10385 -1.5624,-2.14561 -2.46246,-3.11581c-0.18211,-0.27188 -0.37196,-0.53519 -0.57139,-0.78792c-3.03445,-3.84542 -9.27651,-10.92349 -14.4605,-14.77198c-1.77918,-2.15825 -3.91337,-4.01294 -6.31319,-5.4747c-2.71087,-2.47339 -5.55321,-5.23715 -8.67797,-7.26332c-5.60287,-3.63303 -11.61533,-6.23323 -17.70444,-8.68936c-4.39942,-2.65367 -9.45337,-4.72962 -14.37051,-6.35411c-2.71308,-1.36697 -5.70926,-2.25425 -8.87716,-2.55044c-0.37417,-0.09353 -0.74384,-0.18441 -1.10854,-0.27272c-0.97087,-0.30861 -1.96745,-0.55953 -2.98572,-0.74873c-2.55608,-0.67842 -5.66531,-1.5204 -8.29129,-1.63471c-0.00142,-0.02966 -0.00289,-0.05931 -0.00441,-0.08894h113.9497z" data-paper-data="{&quot;index&quot;:null}" fill="#d08800" stroke="#000000"/><g data-paper-data="{&quot;index&quot;:null}" fill="#624000" stroke="none"><path d=""/><path d=""/><path d=""/><path d=""/><path d=""/><path d=""/><path d=""/><path d=""/><path d=""/><path d=""/><path d=""/><path d=""/><path d=""/><path d=""/><path d=""/><path d=""/><path d=""/><path d=""/><path d=""/><path d=""/><path d="M304,234.03317c-0.05987,-0.56005 -0.12538,-1.12115 -0.19631,-1.68264h0.19631z"/><path d="M301.59039,220.70107c-1.07729,-4.24796 -2.39606,-8.23784 -3.84409,-11.64946h5.9098v11.64946z"/><path d=""/><path d=""/><path d=""/><path d=""/><path d=""/><path d=""/><path d=""/><path d=""/><path d=""/><path d=""/><path d=""/><path d="M268.8408,159.10072c-2.48599,-2.79074 -5.4639,-5.8742 -8.30786,-8.3022h8.30786z"/><path d=""/><path d=""/><path d=""/><path d=""/><path d="M280.4459,174.08724c-0.13836,-0.16221 -0.27875,-0.32263 -0.42114,-0.48122c-1.09887,-2.14981 -2.49982,-4.11956 -4.14688,-5.85327c-0.73842,-1.10385 -1.5624,-2.14561 -2.46246,-3.11581c-0.18211,-0.27188 -0.37196,-0.53519 -0.57139,-0.78792c-0.33905,-0.42966 -0.71814,-0.89968 -1.13133,-1.40104h8.7332z"/><path d="M292.051,150.79852v11.64946h-11.6051v-11.64946z"/><path d="M292.39491,174.09744v11.64946h-4.93689c-0.81014,-1.58609 -1.67357,-3.11715 -2.61398,-4.56455c-0.11532,-0.17749 -0.23465,-0.35418 -0.35755,-0.53017c-0.93566,-2.23419 -2.18642,-4.30369 -3.69669,-6.15292v-0.40181z"/><path d="M304,185.74691v11.64947h-11.43583c-0.05644,-0.13789 -0.11285,-0.27586 -0.16927,-0.41389v-11.23558z"/><path d="M303.6561,162.44798v11.64946h-11.6051v-11.64946z"/><path d=""/><path d=""/><path d=""/><path d=""/><path d=""/><path d="M245.6306,127.49383v10.44448c-0.73073,-0.56703 -1.47607,-1.10511 -2.23822,-1.5993c-3.02064,-1.95865 -6.16032,-3.6171 -9.36688,-5.11463v-3.73055z"/><path d="M257.57959,148.14897c-1.6058,-1.76479 -3.46075,-3.29887 -5.50925,-4.54663c-1.59538,-1.45563 -3.23629,-3.01182 -4.95351,-4.45905h10.46277z"/><path d="M269.18469,127.49383v11.64947h-11.6051v-11.64947z"/><path d="M280.7898,139.14329v11.64946h-11.6051v-11.64946z"/><path d="M292.3949,127.49383v11.64947h-11.6051v-11.64947z"/><path d="M304,139.14329v11.64946h-11.6051v-11.64946z"/><path d=""/><path d="M211.1592,116v5.21653c-2.67118,-1.32217 -5.61251,-2.18099 -8.71895,-2.47143c-0.37417,-0.09353 -0.74384,-0.18441 -1.10854,-0.27272c-0.58354,-0.18549 -1.17637,-0.35014 -1.77761,-0.49307v-1.97931z"/><path d="M234.3694,116v11.64947h-8.68176c-0.94677,-0.57107 -1.92384,-1.11538 -2.92334,-1.63419v-10.01528z"/><path d=""/><path d="M257.5796,116v11.64947h-11.6051v-11.64947z"/><path d="M280.7898,116v11.64947h-11.6051v-11.64947z"/><path d="M304,116v11.64947h-11.6051v-11.64947z"/></g><path d="M303.99998,234.36632c-0.33871,-3.16818 -0.85787,-6.36956 -1.51678,-9.48804l1.51678,-0.86616z" data-paper-data="{&quot;index&quot;:null}" fill="#00d40b" stroke="none"/><path d="M303.44971,234.26872c-0.17675,-1.65333 -0.40265,-3.31569 -0.6719,-4.9706l0.6719,-0.38369z" data-paper-data="{&quot;index&quot;:null}" fill="#00ff0d" stroke="none"/><path d="M176,244v-128h128v128z" fill="none" stroke="#000000"/></g></g></svg>