<svg version="1.1" xmlns="http://www.w3.org/2000/svg" xmlns:xlink="http://www.w3.org/1999/xlink" width="128.11639" height="128.03014" viewBox="0,0,128.11639,128.03014"><g transform="translate(-176,-115.96986)"><g data-paper-data="{&quot;isPaintingLayer&quot;:true}" fill-rule="nonzero" stroke-width="0" stroke-linecap="butt" stroke-linejoin="miter" stroke-miterlimit="10" stroke-dasharray="" stroke-dashoffset="0" style="mix-blend-mode: normal"><path d="M304.11639,115.96986v128h-0.64874c-1.26591,-0.19749 -2.56328,-0.3 -3.8846,-0.3c-0.45609,0 -0.90932,0.01221 -1.35939,0.03633c-0.32312,-0.05611 -0.64836,-0.10602 -0.97561,-0.1496c-1.78461,-0.40441 -3.64168,-0.61791 -5.54862,-0.61791c-2.23101,-0.32218 -4.61187,0.45245 -6.83125,0.30235c-0.50446,-0.01294 -1.00769,-0.0292 -1.50967,-0.04874c-1.38349,-0.28727 -2.80888,-0.46021 -4.26582,-0.50848c-1.21705,-0.20467 -2.46394,-0.32141 -3.73391,-0.34344c-1.47429,-0.34867 -2.99905,-0.56681 -4.56139,-0.64153c-1.74048,-0.41964 -3.55195,-0.65719 -5.41312,-0.69135c-15.09713,-3.1372 -28.76353,-9.41572 -40.60973,-18.15522c-1.2067,-1.1433 -2.52734,-2.16756 -3.9431,-3.05396c-2.71774,-2.20808 -5.33009,-4.55095 -7.83182,-7.01946c-1.25227,-1.68614 -2.71185,-3.20912 -4.34104,-4.53124c-13.288,-14.66912 -22.99583,-33.12208 -28.19889,-53.74374c-0.21053,-2.121 -0.68614,-4.16402 -1.39324,-6.09546c-0.4386,-2.13738 -0.82974,-4.29553 -1.17244,-6.47276c-0.06952,-1.65492 -0.29993,-3.26824 -0.67599,-4.82474c-0.72858,-5.9249 -1.10207,-11.97866 -1.10163,-18.12833v-3.01271z" data-paper-data="{&quot;index&quot;:null}" fill="#d08800" stroke="#000000"/><g data-paper-data="{&quot;index&quot;:null}" fill="#624000" stroke="none"><path d="M303.6561,232.38491v11.61509c-1.32551,-0.21719 -2.68609,-0.33014 -4.07305,-0.33014c-0.45609,0 -0.90932,0.01221 -1.35939,0.03633c-1.39929,-0.243 -2.83849,-0.36966 -4.30728,-0.36966c-0.62746,0 -1.24952,0.02312 -1.86538,0.06854v-11.02016z"/><path d="M292.3949,220.73545v11.64946h-11.6051v-11.64946z"/><path d="M280.7898,209.08599v11.64946h-11.6051v-11.64946z"/><path d="M269.1847,197.43652v11.64946h-11.6051v-11.64946z"/><path d="M280.4459,232.38491v10.38009c-0.4478,-0.03897 -0.89897,-0.06614 -1.35322,-0.08119c-1.21705,-0.20467 -2.46394,-0.32141 -3.73391,-0.34344c-1.47429,-0.34867 -2.99905,-0.56681 -4.56139,-0.64153c-0.64286,-0.155 -1.29541,-0.28516 -1.95657,-0.3894v-8.92453z"/><path d="M269.1847,220.73545v11.64946h-11.6051v-11.64946z"/><path d="M257.2357,232.38491v7.07973c-1.94524,-0.78194 -4.0115,-1.32638 -6.16291,-1.59742c-0.35232,-0.14467 -0.70868,-0.28152 -1.06885,-0.41034c-1.36956,-0.904 -2.8333,-1.67687 -4.37334,-2.30072v-2.77124z"/><path d="M257.5796,209.08599v11.64946h-11.6051v-11.64946z"/><path d="M245.9745,197.43652v11.64946h-11.6051v-11.64946z"/><path d="M245.9745,220.73545v11.64946h-7.10928c-1.39719,-1.00845 -2.90273,-1.8761 -4.49582,-2.58216v-9.0673z"/><path d=""/><path d="M234.3694,209.08599v11.64946h-11.6051v-11.64946z"/><path d="M222.7643,197.43652v11.64946h-11.6051v-11.64946z"/><path d="M222.42042,220.73545v0.14478c-0.06577,-0.04857 -0.13178,-0.09683 -0.19804,-0.14478z"/><path d="M292.3949,197.43652v11.64946h-11.6051v-11.64946z"/><path d="M304,209.08599v11.64946h-11.6051v-11.64946z"/><path d=""/><path d="M211.15921,209.08599v1.4899c-0.48538,-0.5178 -0.99256,-1.01492 -1.52007,-1.4899z"/><path d=""/><path d=""/><path d=""/><path d=""/><path d="M303.6561,185.78129v11.64947h-11.6051v-11.64947z"/><path d="M292.3949,174.13183v11.64946h-11.6051v-11.64946z"/><path d="M280.7898,162.48236v11.64946h-11.6051v-11.64946z"/><path d="M269.1847,150.8329v11.64946h-11.6051v-11.64946z"/><path d="M280.4459,185.78129v11.64947h-11.6051v-11.64947z"/><path d="M269.1847,174.13183v11.64946h-11.6051v-11.64946z"/><path d="M257.2357,185.78129v11.64947h-11.6051v-11.64947z"/><path d="M257.5796,162.48236v11.64946h-11.6051v-11.64946z"/><path d="M245.9745,150.8329v11.64946h-11.6051v-11.64946z"/><path d="M245.9745,174.13183v11.64946h-11.6051v-11.64946z"/><path d="M234.0255,185.78129v11.64947h-11.6051v-11.64947z"/><path d="M222.7643,150.8329v11.64946h-11.6051v-11.64946z"/><path d="M222.42042,174.13183v11.64946h-11.6051v-11.64946z"/><path d="M292.3949,150.8329v11.64946h-11.6051v-11.64946z"/><path d="M304,162.48236v11.64946h-11.6051v-11.64946z"/><path d="M210.8153,185.78129v11.64947h-11.22396c-0.12539,-0.14663 -0.25244,-0.2918 -0.38114,-0.43546v-11.21401z"/><path d="M211.15921,162.48236v11.64946h-11.6051v-11.64946z"/><path d="M199.55411,150.8329v11.64946h-11.6051v-11.64946z"/><path d="M199.2102,174.13183v11.64946h-6.86786c-0.56869,-0.94337 -1.19793,-1.84612 -1.88232,-2.70287c-0.48063,-1.86477 -1.17102,-3.64527 -2.04452,-5.31486c-0.23672,-0.74563 -0.50746,-1.4761 -0.8104,-2.1896v-1.44213z"/><path d=""/><path d="M187.949,162.48236v11.64946h-1.01138c-0.47709,-0.94998 -1.01295,-1.86535 -1.60281,-2.74134c-0.17404,-0.41749 -0.35908,-0.82925 -0.55476,-1.23492c-0.37783,-1.92288 -0.97612,-3.7667 -1.76746,-5.50403c-0.2041,-0.7373 -0.44114,-1.46092 -0.70942,-2.16917z"/><path d="M303.6561,139.17767v11.64946h-11.6051v-11.64946z"/><path d="M292.3949,127.52821v11.64947h-11.6051v-11.64947z"/><path d="M280.4459,139.17767v11.64946h-11.6051v-11.64946z"/><path d="M269.1847,127.52821v11.64947h-11.6051v-11.64947z"/><path d="M257.2357,139.17767v11.64946h-11.6051v-11.64946z"/><path d="M245.9745,127.52821v11.64947h-11.6051v-11.64947z"/><path d="M234.0255,139.17767v11.64946h-11.6051v-11.64946z"/><path d="M222.42042,127.52821v11.64947h-11.6051v-11.64947z"/><path d="M210.8153,139.17767v11.64946h-11.6051v-11.64946z"/><path d="M199.2102,127.52821v11.64947h-11.6051v-11.64947z"/><path d="M187.6051,139.17767v11.64946h-7.79075c-0.26145,-1.02891 -0.58671,-2.03235 -0.97132,-3.00586c-0.12773,-0.70024 -0.28464,-1.39031 -0.46941,-2.06888c-0.11063,-0.85198 -0.26415,-1.69049 -0.45833,-2.51329c0.00073,-0.07855 0.00109,-0.15718 0.00109,-0.2359c0,-1.30077 -0.09934,-2.57834 -0.29086,-3.82553z"/><path d="M303.6561,116.03438v11.64947h-11.6051v-11.64947z"/><path d="M280.4459,116.03438v11.64947h-11.6051v-11.64947z"/><path d="M257.2357,116.03438v11.64947h-11.6051v-11.64947z"/><path d="M234.3694,162.48236v11.64946h-11.6051v-11.64946z"/><path d="M234.0255,116.03438v11.64947h-11.6051v-11.64947z"/><path d="M210.8153,116.03438v11.64947h-11.6051v-11.64947z"/><path d="M187.6051,116.03438v11.64947h-11.27177l-0.33333,-11.64947z"/></g><path d="" data-paper-data="{&quot;index&quot;:null}" fill="#d08800" stroke="#000000"/><path d="" data-paper-data="{&quot;index&quot;:null}" fill="#00d40b" stroke="none"/><path d="" data-paper-data="{&quot;index&quot;:null}" fill="#00d40b" stroke="none"/><path d="" data-paper-data="{&quot;index&quot;:null}" fill="#00ff0d" stroke="none"/><path d="M227.20711,209.2621l-0.38244,2.95868c-0.41423,-0.29833 -0.82859,-0.59652 -1.2428,-0.89486z" data-paper-data="{&quot;index&quot;:null}" fill="#00d40b" stroke="none"/><path d="M243.7104,225.52356l2.72035,1.69031c-0.96808,-0.49341 -1.90222,-1.02317 -2.76999,-1.62262z" data-paper-data="{&quot;index&quot;:null}" fill="#00ff0d" stroke="none"/><path d="M176,244v-128h128v128z" fill="none" stroke="#000000"/></g></g></svg>